<?xml version="1.0" encoding="utf-8"?>
<!-- Generator: Adobe Illustrator 17.1.0, SVG Export Plug-In . SVG Version: 6.00 Build 0)  -->
<!DOCTYPE svg PUBLIC "-//W3C//DTD SVG 1.1//EN" "http://www.w3.org/Graphics/SVG/1.1/DTD/svg11.dtd">
<svg version="1.1" id="Layer_1" xmlns="http://www.w3.org/2000/svg" xmlns:xlink="http://www.w3.org/1999/xlink" x="0px" y="0px"
	 viewBox="0 0 1942.8 390" enable-background="new 0 0 1942.8 390" xml:space="preserve">
<g>
	<g>
		<polygon fill="#E47B5B" points="1392.2,180.9 1391.5,180.9 1329,10.7 1266.8,10.7 1216.7,275.6 1280.7,275.6 1310,109.2 
			1310.7,109.2 1374.2,276.4 1436,276.4 1486.4,11 1424.3,11 		"/>
		<path fill="#E47B5B" d="M428.7,10.4h165.6L583.5,66H482.4l-9.3,48.2h80.4l-11.1,55.6H462l-9.6,50h106.3L548,275.3H376.8
			L428.7,10.4z"/>
		<path fill="#E47B5B" d="M592.5,190.1l3-15.6h64.8l-2.6,13.7c-0.7,4.4-1.5,8.9-1.5,12.2c0,14.8,8.5,20,19.6,20
			c13.7,0,24.5-8.5,28.1-27.8L728.8,66H658l10.8-55.6h135.6L768,197.5c-10.7,55.9-50.8,82.2-93.7,82.2c-43.7,0-83.7-23.7-83.7-70.4
			C590.6,203.8,591,197.1,592.5,190.1z"/>
		<path fill="#E47B5B" d="M968,6c75.6,0,124.8,48.5,124.8,115.6c0,85.6-75.6,158.2-155.6,158.2c-75.9,0-124.5-49.7-124.5-118.2
			C812.7,77.5,886.8,6,968,6z M937.9,220.5c43.3,0,87.8-41.5,87.8-94.8c0-36.3-24.1-60.4-58.6-60.4c-44.5,0-87.8,40.8-87.8,92.6
			C879.4,195.3,903.5,220.5,937.9,220.5z"/>
		<path fill="#E47B5B" d="M1150.5,10.4h64.9l-51.5,264.9H1099L1150.5,10.4z"/>
		<path fill="#E47B5B" d="M1541.2,10.4h165.6L1696.1,66h-101.1l-9.3,48.2h80.4l-11.1,55.6h-80.4l-9.6,50h106.3l-10.7,55.6h-171.2
			L1541.2,10.4z"/>
		<path fill="#E47B5B" d="M1753.7,10.4h98.6c14.4,0,27.8,1.9,38.9,6.3c24.8,10,39.6,31.1,39.6,60.8c0,31.5-14.8,73.7-55.2,89.7v0.7
			c0,0,2.6,4.4,6.7,15.9l34.1,91.5h-69.7L1817,186h-32.6l-17.4,89.3h-64.9L1753.7,10.4z M1823,130.5c23,0,41.1-14.4,41.1-40.8
			c0-15.6-10.4-23.7-27-23.7h-29.3l-12.6,64.5H1823z"/>
	</g>
	<path fill="#E47B5B" d="M298.7,318.3l-87.9,8.8l-0.1,0L16.3,346c-5.4,0.1-10,4-11.1,9.3l0,0.2c-1.4,7.2,4.1,14.6,11.4,14.6h303.6
		c4.3,0,8.3-2.4,10.3-6.2l30.8-42.5c2.9-4,3.3-9.2,1.1-13.6l-65.6-128.3c-3.1-6-1.2-13.5,4.6-16.9C333.8,144,346,106.5,346,77.9
		c0-27.9-13.1-48.3-35.2-59c-1.4-0.7-2.9-1.3-4.4-1.9c-1.8-0.7-3.8-1.3-5.8-1.9c-1-0.3-2-0.7-3.1-1c-9.2-2.4-19.4-3.5-30.4-3.5
		l-98.8,0l-51.6,265.5h65l17.6-89.5H224c3.8,0,6.6,0.4,9.2,3.9 M238,131l-27.9,0l0-0.1H210l12.6-64.7l29.4,0c4.2,0,8.1,0.5,11.4,1.6
		c10,3,15.8,10.6,15.8,22.3C279.2,116.5,260.9,131,238,131z"/>
</g>
</svg>
