<?xml version="1.0" encoding="utf-8"?>
<!-- Generator: Adobe Illustrator 17.1.0, SVG Export Plug-In . SVG Version: 6.00 Build 0)  -->
<!DOCTYPE svg PUBLIC "-//W3C//DTD SVG 1.1//EN" "http://www.w3.org/Graphics/SVG/1.1/DTD/svg11.dtd">
<svg version="1.1" id="Layer_1" xmlns="http://www.w3.org/2000/svg" xmlns:xlink="http://www.w3.org/1999/xlink" x="0px" y="0px"
	 viewBox="0 0 360 360" enable-background="new 0 0 360 360" xml:space="preserve">
<path fill="#FFFFFF" d="M309.1,268.6l-47.8-93.5c-2.2-4.4-0.9-9.9,3.4-12.3c23.7-13.6,32.6-40.9,32.5-61.8c0-20.3-9.5-35.2-25.7-43
	c-1-0.5-2.1-1-3.2-1.4c-1.3-0.5-2.8-1-4.2-1.4c-0.8-0.2-1.5-0.5-2.2-0.7c-6.7-1.8-14.2-2.5-22.1-2.5l-72,0L130,245.5h47.4l12.8-65.2
	h18c2.8,0,4.8,0.3,6.7,2.8l47.7,93.1l-64.1,6.4l-0.1,0L56.8,296.5c-3.9,0.1-7.3,2.9-8.1,6.8l0,0.2c-1,5.2,3,10.6,8.3,10.6h221.3
	c3.1,0,6-1.8,7.5-4.6l22.5-31C310.4,275.6,310.7,271.8,309.1,268.6z M218.4,139.7l-20.3,0l0-0.1H198l9.2-47.1l21.4,0
	c3.1,0,5.9,0.4,8.3,1.2c7.3,2.2,11.5,7.7,11.5,16.2C248.5,129.2,235.2,139.7,218.4,139.7z"/>
</svg>
