<?xml version="1.0" encoding="utf-8"?>
<!-- Generator: Adobe Illustrator 17.1.0, SVG Export Plug-In . SVG Version: 6.00 Build 0)  -->
<!DOCTYPE svg PUBLIC "-//W3C//DTD SVG 1.1//EN" "http://www.w3.org/Graphics/SVG/1.1/DTD/svg11.dtd">
<svg version="1.1" id="Layer_1" xmlns="http://www.w3.org/2000/svg" xmlns:xlink="http://www.w3.org/1999/xlink" x="0px" y="0px"
	 viewBox="0 0 367.1 69.7" enable-background="new 0 0 367.1 69.7" xml:space="preserve">
<g>
	<g>
		<g>
			<polygon fill="#85BB4E" points="264.2,33.3 264.1,33.3 252.2,0.9 240.4,0.9 230.8,51.3 243,51.3 248.6,19.6 248.7,19.6 
				260.8,51.4 272.5,51.4 282.1,1 270.3,1 			"/>
			<path fill="#85BB4E" d="M81,0.8h31.5l-2,10.6H91.2l-1.8,9.2h15.3l-2.1,10.6H87.4l-1.8,9.5h20.2l-2,10.6H71.2L81,0.8z"/>
			<path fill="#85BB4E" d="M112.2,35l0.6-3H125l-0.5,2.6c-0.1,0.8-0.3,1.7-0.3,2.3c0,2.8,1.6,3.8,3.7,3.8c2.6,0,4.7-1.6,5.4-5.3
				l4.7-24.1h-13.5l2-10.6h25.8l-6.9,35.6c-2,10.6-9.7,15.6-17.8,15.6c-8.3,0-15.9-4.5-15.9-13.4C111.8,37.6,111.9,36.3,112.2,35z"
				/>
			<path fill="#85BB4E" d="M183.5,0c14.4,0,23.7,9.2,23.7,22c0,16.3-14.4,30.1-29.6,30.1c-14.4,0-23.7-9.4-23.7-22.5
				C154,13.6,168.1,0,183.5,0z M177.8,40.8c8.2,0,16.7-7.9,16.7-18c0-6.9-4.6-11.5-11.1-11.5c-8.5,0-16.7,7.7-16.7,17.6
				C166.7,36,171.3,40.8,177.8,40.8z"/>
			<path fill="#85BB4E" d="M218.3,0.8h12.3l-9.8,50.4h-12.3L218.3,0.8z"/>
			<path fill="#85BB4E" d="M292.5,0.8H324l-2,10.6h-19.2l-1.8,9.2h15.3l-2.1,10.6h-15.3l-1.8,9.5h20.2l-2,10.6h-32.5L292.5,0.8z"/>
			<path fill="#85BB4E" d="M332.9,0.8h18.7c2.7,0,5.3,0.4,7.4,1.2c4.7,1.9,7.5,5.9,7.5,11.6c0,6-2.8,14-10.5,17v0.1
				c0,0,0.5,0.8,1.3,3l6.5,17.4h-13.2l-5.6-17h-6.2l-3.3,17h-12.3L332.9,0.8z M346.1,23.7c4.4,0,7.8-2.7,7.8-7.7c0-3-2-4.5-5.1-4.5
				h-5.6l-2.4,12.3H346.1z"/>
		</g>
		<path fill="#85BB4E" d="M68.4,57.4L55.9,33c-0.6-1.1-0.2-2.6,0.9-3.2c6.2-3.5,8.5-10.7,8.5-16.1c0-5.3-2.5-9.2-6.7-11.2
			c-0.3-0.1-0.6-0.3-0.8-0.4C57.4,2,57,1.9,56.7,1.7c-0.2-0.1-0.4-0.1-0.6-0.2c-1.7-0.5-3.7-0.7-5.8-0.7l-18.8,0l-9.8,50.5h12.4
			l3.3-17h4.7c0.7,0,1.3,0.1,1.7,0.7l12.4,24.3L39.6,61l0,0l-37,3.6c-1,0-1.9,0.8-2.1,1.8l0,0c-0.3,1.4,0.8,2.8,2.2,2.8h57.7
			c0.8,0,1.6-0.5,2-1.2l5.9-8.1C68.8,59.2,68.8,58.2,68.4,57.4z M44.8,23.8l-5.3,0l0,0h0l2.4-12.3l5.6,0c0.8,0,1.5,0.1,2.2,0.3
			c1.9,0.6,3,2,3,4.2C52.6,21,49.1,23.8,44.8,23.8z"/>
	</g>
	<polygon fill="#547838" points="56.3,59.4 39.6,61 60.4,67.3 	"/>
</g>
</svg>
